<svg width="22" height="22" viewBox="0 0 22 22" fill="none" xmlns="http://www.w3.org/2000/svg">
<path d="M7.00682 2.44463C6.75278 2.43904 6.50332 2.51269 6.2931 2.65543C6.08289 2.79818 5.92237 3.00298 5.83387 3.24117C5.74537 3.47936 5.73328 3.73917 5.79929 3.98455C5.8653 4.22993 6.00612 4.44855 6.20217 4.61019L13.6828 11.0187L6.20217 17.425C6.06655 17.5247 5.95297 17.6513 5.86854 17.7969C5.78412 17.9425 5.73067 18.104 5.71154 18.2712C5.69241 18.4384 5.70801 18.6078 5.75736 18.7687C5.80672 18.9296 5.88877 19.0786 5.99838 19.2064C6.10798 19.3341 6.24278 19.4377 6.39433 19.5109C6.54587 19.5842 6.71091 19.6253 6.8791 19.6318C7.04728 19.6383 7.215 19.61 7.37174 19.5487C7.52848 19.4874 7.67087 19.3944 7.78999 19.2754L16.3546 11.9475C16.4891 11.8328 16.5971 11.6903 16.6712 11.5297C16.7452 11.3692 16.7836 11.1944 16.7836 11.0176C16.7836 10.8408 16.7452 10.666 16.6712 10.5055C16.5971 10.3449 16.4891 10.2023 16.3546 10.0875L7.78999 2.75259C7.57363 2.56041 7.29612 2.45116 7.00682 2.44435V2.44463Z" fill="#E78344"/>
</svg>
