<svg width="22" height="22" viewBox="0 0 22 22" fill="none" xmlns="http://www.w3.org/2000/svg">
<path d="M14.9932 2.44463C15.2472 2.43904 15.4967 2.51269 15.7069 2.65543C15.9171 2.79818 16.0776 3.00298 16.1661 3.24117C16.2546 3.47936 16.2667 3.73917 16.2007 3.98455C16.1347 4.22993 15.9939 4.44855 15.7978 4.61019L8.3172 11.0187L15.7978 17.425C15.9335 17.5247 16.047 17.6513 16.1315 17.7969C16.2159 17.9425 16.2693 18.104 16.2885 18.2712C16.3076 18.4384 16.292 18.6078 16.2426 18.7687C16.1933 18.9296 16.1112 19.0786 16.0016 19.2064C15.892 19.3341 15.7572 19.4377 15.6057 19.5109C15.4541 19.5842 15.2891 19.6253 15.1209 19.6318C14.9527 19.6383 14.785 19.61 14.6283 19.5487C14.4715 19.4874 14.3291 19.3944 14.21 19.2754L5.64537 11.9475C5.51087 11.8328 5.40287 11.6903 5.32881 11.5297C5.25476 11.3692 5.21641 11.1944 5.21641 11.0176C5.21641 10.8408 5.25476 10.666 5.32881 10.5055C5.40287 10.3449 5.51087 10.2023 5.64537 10.0875L14.21 2.75259C14.4264 2.56041 14.7039 2.45116 14.9932 2.44435V2.44463Z" fill="#C3C3C3"/>
</svg>
