<svg width="58" height="58" viewBox="0 0 58 58" fill="none" xmlns="http://www.w3.org/2000/svg">
<path d="M18.4728 6.44524C17.8031 6.43051 17.1454 6.62466 16.5912 7.00099C16.037 7.37733 15.6138 7.91725 15.3805 8.5452C15.1472 9.17316 15.1153 9.85812 15.2893 10.505C15.4634 11.1519 15.8346 11.7283 16.3515 12.1544L36.0732 29.0497L16.3515 45.939C15.9939 46.2018 15.6945 46.5354 15.4719 46.9193C15.2494 47.3032 15.1084 47.729 15.058 48.1699C15.0076 48.6107 15.0487 49.0571 15.1788 49.4814C15.3089 49.9056 15.5253 50.2985 15.8142 50.6352C16.1032 50.972 16.4585 51.2452 16.8581 51.4382C17.2576 51.6312 17.6927 51.7397 18.1361 51.7568C18.5795 51.7739 19.0217 51.6995 19.4349 51.5378C19.8481 51.3761 20.2235 51.1309 20.5375 50.8174L43.1171 31.4984C43.4716 31.1958 43.7564 30.8202 43.9516 30.3969C44.1469 29.9736 44.248 29.5129 44.248 29.0467C44.248 28.5806 44.1469 28.1199 43.9516 27.6966C43.7564 27.2733 43.4716 26.8973 43.1171 26.5947L20.5375 7.25712C19.9672 6.75048 19.2355 6.46244 18.4728 6.44449V6.44524Z" fill="white"/>
</svg>
