<svg width="253" height="12" viewBox="0 0 253 12" fill="none" xmlns="http://www.w3.org/2000/svg">
<ellipse cx="156.553" cy="5.95893" rx="5.76136" ry="5.95879" transform="rotate(-180 156.553 5.95893)" fill="#E78344"/>
<ellipse cx="201.491" cy="5.95893" rx="5.76136" ry="5.95879" transform="rotate(-180 201.491 5.95893)" fill="#E78344"/>
<ellipse cx="246.491" cy="5.95893" rx="5.76136" ry="5.95879" transform="rotate(-180 246.491 5.95893)" fill="#E78344"/>
<ellipse cx="111.614" cy="5.95869" rx="5.76136" ry="5.95879" transform="rotate(-180 111.614 5.95869)" fill="#E78344"/>
<ellipse cx="66.6761" cy="5.95869" rx="5.76136" ry="5.95879" transform="rotate(-180 66.6761 5.95869)" fill="#E78344"/>
<ellipse cx="21.7386" cy="5.95881" rx="5.76136" ry="5.95879" transform="rotate(-180 21.7386 5.95881)" fill="#E78344"/>
<ellipse cx="141.577" cy="5.95893" rx="5.76136" ry="5.95879" transform="rotate(-180 141.577 5.95893)" fill="#194477"/>
<ellipse cx="186.512" cy="5.95893" rx="5.76136" ry="5.95879" transform="rotate(-180 186.512 5.95893)" fill="#194477"/>
<ellipse cx="96.6351" cy="5.95881" rx="5.76136" ry="5.95879" transform="rotate(-180 96.6351 5.95881)" fill="#194477"/>
<ellipse cx="231.512" cy="5.95893" rx="5.76136" ry="5.95879" transform="rotate(-180 231.512 5.95893)" fill="#194477"/>
<ellipse cx="171.534" cy="5.95893" rx="5.76136" ry="5.95879" transform="rotate(-180 171.534 5.95893)" fill="#F2C26E"/>
<ellipse cx="216.53" cy="5.95893" rx="5.76136" ry="5.95879" transform="rotate(-180 216.53 5.95893)" fill="#F2C26E"/>
<ellipse cx="126.596" cy="5.95869" rx="5.76136" ry="5.95879" transform="rotate(-180 126.596 5.95869)" fill="#F2C26E"/>
<ellipse cx="51.6976" cy="5.95869" rx="5.76136" ry="5.95879" transform="rotate(-180 51.6976 5.95869)" fill="#194477"/>
<ellipse cx="6.76012" cy="5.95869" rx="5.76136" ry="5.95879" transform="rotate(-180 6.76012 5.95869)" fill="#194477"/>
<ellipse cx="81.6586" cy="5.95881" rx="5.76136" ry="5.95879" transform="rotate(-180 81.6586 5.95881)" fill="#F2C26E"/>
<ellipse cx="36.7191" cy="5.95881" rx="5.76136" ry="5.95879" transform="rotate(-180 36.7191 5.95881)" fill="#F2C26E"/>
</svg>
