<svg width="129" height="11" viewBox="0 0 129 11" fill="none" xmlns="http://www.w3.org/2000/svg">
<ellipse cx="97.3719" cy="5.05793" rx="5.07145" ry="5.05792" transform="rotate(-180 97.3719 5.05793)" fill="#E78344"/>
<ellipse cx="57.8133" cy="5.05793" rx="5.07145" ry="5.05792" transform="rotate(-180 57.8133 5.05793)" fill="#E78344"/>
<ellipse cx="18.2567" cy="5.05793" rx="5.07145" ry="5.05792" transform="rotate(-180 18.2567 5.05793)" fill="#E78344"/>
<ellipse cx="123.743" cy="5.05805" rx="5.07145" ry="5.05792" transform="rotate(-180 123.743 5.05805)" fill="#194477"/>
<ellipse cx="84.1864" cy="5.05793" rx="5.07145" ry="5.05792" transform="rotate(-180 84.1864 5.05793)" fill="#194477"/>
<ellipse cx="110.557" cy="5.05793" rx="5.07145" ry="5.05792" transform="rotate(-180 110.557 5.05793)" fill="#F2C26E"/>
<ellipse cx="44.6297" cy="5.05793" rx="5.07145" ry="5.05792" transform="rotate(-180 44.6297 5.05793)" fill="#194477"/>
<ellipse cx="5.07113" cy="5.05793" rx="5.07145" ry="5.05792" transform="rotate(-180 5.07113 5.05793)" fill="#194477"/>
<ellipse cx="71.0008" cy="5.05793" rx="5.07145" ry="5.05792" transform="rotate(-180 71.0008 5.05793)" fill="#F2C26E"/>
<ellipse cx="31.4422" cy="5.05793" rx="5.07145" ry="5.05792" transform="rotate(-180 31.4422 5.05793)" fill="#F2C26E"/>
</svg>
