<svg width="304" height="239" viewBox="0 0 304 239" fill="none" xmlns="http://www.w3.org/2000/svg">
<path d="M102.729 61.1461C90.6386 56.8564 74.7749 64.4826 65.5339 74.6963C52.0575 89.6083 52.5196 106.699 52.5966 107.38V107.312C52.9816 105.474 58.2182 80.7564 76.0841 70.6789C92.7948 61.2142 107.349 65.6402 107.657 77.8966C107.811 83.6844 103.961 89.4722 96.9533 94.1705C97.2613 94.4428 97.6463 94.579 98.1084 94.6471C105.732 95.6004 127.448 69.9299 102.729 61.1461Z" fill="#184477"/>
<path d="M77.7785 75.2408C60.9907 81.4372 53.7519 103.567 52.6738 107.312C52.6738 107.38 52.6738 107.448 52.6738 107.448C63.455 75.9218 83.8621 78.7816 87.8666 80.6201C95.2593 83.9565 94.9513 89.8124 96.1834 92.8084C106.888 77.4198 92.333 69.8616 77.7785 75.2408Z" fill="#E68244"/>
<path d="M107.735 77.8966C107.427 65.6402 92.7951 61.2143 76.1613 70.679C58.2954 80.7565 53.0589 105.542 52.6738 107.312C53.7519 103.567 61.0677 81.3693 77.7785 75.2411C92.41 69.8619 106.888 77.42 96.1064 92.7406C96.3375 93.3534 96.6455 93.83 97.0305 94.1705C104.038 89.4722 107.889 83.6844 107.735 77.8966Z" fill="#F1C16E"/>
<path d="M98.4181 129.101C91.6414 127.195 80.3212 128.216 58.2199 130.123C44.8975 131.28 39.5069 127.263 45.8986 119.092C56.7567 105.133 78.8581 77.6924 79.3971 77.0114C80.0132 76.1943 80.3982 75.173 80.3982 74.0835C80.3982 71.496 78.319 69.3852 75.6237 68.9086C76.9329 69.8618 79.2431 72.0408 77.2409 75.0368C74.4686 79.0542 49.749 106.767 42.6642 115.279C30.805 129.646 33.0382 135.774 51.0581 135.093C57.7578 134.821 80.7063 132.37 86.0968 132.438C93.3356 132.506 98.0331 134.344 98.0331 139.86C98.0331 146.533 91.7184 161.241 77.5489 187.32C65.0736 210.334 55.7556 229.332 33.1152 238.933C41.6631 239.273 51.9822 238.388 60.2991 234.711C60.9152 234.439 61.4542 234.166 62.0703 233.894C62.4553 233.69 62.8404 233.554 63.1484 233.349C66.9218 231.238 70.0021 228.106 71.9273 224.497C71.9273 224.497 71.9273 224.429 72.0044 224.361C72.2354 223.885 72.4664 223.408 72.6974 222.931C77.4719 212.377 105.272 151.027 106.35 142.515C107.043 136.591 106.735 131.485 98.4181 129.101Z" fill="#E68244"/>
<path d="M55.8309 193.652C70.6935 173.837 76.1611 163.079 84.4009 148.031C92.5638 133.119 65.919 139.792 40.4293 141.426C14.9396 143.06 29.3401 123.586 35.2697 116.3C42.0465 108.061 70.8475 77.5562 73.0807 72.9941C74.0048 71.1556 73.6968 69.7938 73.0037 68.9086C71.6946 69.1809 70.5395 69.9299 69.6924 70.8832C69.6924 70.8832 36.9639 102.75 21.6393 125.152C16.4797 132.71 17.7889 141.29 21.4083 144.694C34.4226 156.815 86.0181 131.008 67.9212 155.793C53.7517 175.199 29.7251 214.079 0 230.149C0 230.149 -1.1762e-06 230.149 0.077007 230.149C6.23766 229.945 20.1761 228.311 34.1146 217.961C42.5855 211.764 49.3622 202.232 55.8309 193.652Z" fill="#184477"/>
<path d="M77.6236 187.32C91.7931 161.241 98.1078 146.533 98.1078 139.86C98.1078 134.276 93.4103 132.506 86.1715 132.438C80.781 132.37 57.8326 134.821 51.1329 135.094C33.0359 135.774 30.8027 129.646 42.739 115.279C49.8237 106.767 74.5433 79.0543 77.3156 75.0369C79.3948 72.0409 77.0076 69.8619 75.6984 68.9087C75.3134 68.8406 74.9284 68.8406 74.5433 68.8406C74.0813 68.8406 73.5422 68.9087 73.1572 68.9768C73.8502 69.8619 74.1583 71.1557 73.2342 73.0622C70.9239 77.6244 42.1229 108.129 35.4232 116.368C29.4166 123.654 15.093 143.128 40.5827 141.494C66.0724 139.86 92.7172 133.187 84.5544 148.099C76.3145 163.079 70.8469 173.838 55.9844 193.652C49.5927 202.164 42.816 211.764 34.2681 218.029C20.3296 228.311 6.39112 230.013 0.230469 230.217C0.692518 230.49 11.6277 236.958 27.8764 238.592C29.5706 238.797 31.4188 238.865 33.344 238.933C55.8303 229.332 65.1483 210.335 77.6236 187.32Z" fill="#F1C16E"/>
<path d="M118.901 2.24699C102.806 -3.74506 81.5521 6.94529 69.2308 21.2445C51.2108 42.1486 51.9039 66.0486 51.9039 67.07C51.9039 67.0019 51.9039 67.0019 51.9039 66.9338C52.366 64.4144 59.4507 29.7559 83.3232 15.5929C105.579 2.38317 125.062 8.57948 125.524 25.7385C125.755 33.8414 120.595 41.9443 111.2 48.5491C111.585 48.8896 112.124 49.162 112.74 49.2301C122.828 50.5238 151.86 14.5715 118.901 2.24699Z" fill="#184477"/>
<path d="M85.4798 21.9935C63.0705 30.6411 53.4445 61.6908 51.9043 66.9338C51.9043 67.0019 51.9043 67.07 51.9043 67.07C66.3048 22.8787 93.5657 26.8961 98.8793 29.4154C108.736 34.0457 108.351 42.2166 109.968 46.5064C124.369 25.1257 104.963 14.5034 85.4798 21.9935Z" fill="#E68244"/>
<path d="M125.524 25.7385C125.062 8.5114 105.579 2.38317 83.3236 15.5929C59.4511 29.7559 52.4434 64.4144 51.9043 66.9338C53.3675 61.6908 63.0705 30.6411 85.4798 21.9935C104.963 14.4353 124.369 25.0576 109.968 46.5745C110.276 47.3916 110.662 48.1406 111.201 48.6172C120.596 41.9443 125.755 33.8414 125.524 25.7385Z" fill="#F1C16E"/>
<path d="M161.098 59.2395H153.243L155.631 51.409C158.942 51.409 165.719 51.409 167.644 45.0084L172.804 27.9175C173.651 25.1938 172.958 23.2873 170.724 22.2659C169.646 21.7892 168.414 21.5169 164.641 21.5169L166.797 14.4354H175.268C176.346 14.4354 178.81 14.2992 179.503 12.0522C180.119 9.94135 177.732 9.80516 176.654 9.80516H168.183L169.261 6.3325C169.954 4.08549 171.186 0 164.795 0C158.634 0 157.325 4.15358 156.709 6.3325L155.631 9.80516H146.775C145.697 9.80516 143.309 9.94135 142.616 12.1884C142 14.2992 144.311 14.4354 145.389 14.4354H154.245L152.088 21.5169C148.854 21.5169 142.077 21.5169 140.152 27.9175L134.993 45.0084C134.222 47.5959 134.762 49.5705 137.149 50.5919C138.766 51.2728 140.768 51.409 143.078 51.409L140.691 59.2395H130.372C129.294 59.2395 126.83 59.3757 126.137 61.6227C125.444 63.8016 127.908 64.0059 128.986 64.0059H139.305L136.61 72.8578C135.763 75.5815 134.684 79.1903 140.999 79.1903C147.314 79.1903 148.546 75.0367 149.239 72.8578L151.934 64.0059H159.866C160.79 64.0059 163.332 63.8697 164.025 61.6227C164.487 59.4438 162.099 59.2395 161.098 59.2395ZM156.786 44.5999C156.247 46.3022 155.554 46.7788 153.474 46.7788H148.007C146.005 46.7788 145.62 46.3022 146.082 44.5999L147.93 38.4716H158.634L156.786 44.5999ZM160.097 33.8414H149.393L151.087 28.3941C151.549 26.7599 152.319 26.2152 154.322 26.2152H159.789C161.868 26.2152 162.253 26.828 161.791 28.3941L160.097 33.8414Z" fill="#184477"/>
<path d="M204.148 3.06421H192.212C187.668 3.06421 183.51 4.7665 182.201 9.12435L173.499 37.7908C170.804 46.7108 165.798 62.9846 156.403 74.0155C155.787 74.6964 154.709 75.922 154.478 76.5348C154.093 77.8286 155.017 78.7819 156.557 78.7819C157.866 78.7819 158.944 78.169 160.485 76.9434C171.882 67.683 177.041 56.6521 179.275 51.341H186.821L180.815 71.2237C180.276 72.9941 179.583 73.4026 177.503 73.4026H171.42C170.881 73.4026 167.877 73.4026 167.184 75.7858C166.491 77.9648 169.032 78.169 169.957 78.169H180.661C184.665 78.169 189.979 77.0796 191.519 71.7684L210.463 9.19244C212.157 3.74512 206.997 3.06421 204.148 3.06421ZM188.284 46.7108H181.354C182.432 43.851 183.587 40.5826 184.126 38.676L186.821 29.6879H193.367L188.284 46.7108ZM194.83 24.9896H188.284L192.828 10.0095C193.367 8.17106 193.752 7.83061 195.985 7.83061H197.602C199.605 7.83061 199.99 8.10297 199.451 9.87335L194.83 24.9896Z" fill="#E68244"/>
<path d="M132.455 144.149C132.763 143.196 135.612 138.77 136.151 137.817C138.616 133.255 139.463 131.689 143.082 131.689C145.238 131.689 148.704 132.778 147.78 135.842C147.009 138.362 139.617 143.537 136.151 145.716C138.616 145.511 141.08 145.171 143.621 144.83C144.237 144.762 144.853 144.694 145.392 144.694C146.547 144.694 147.548 145.579 147.163 146.805C146.778 148.167 145.7 148.712 144.391 148.984C129.606 152.525 111.663 155.316 109.815 155.316C105.656 155.316 106.965 150.959 107.042 150.686C108.043 147.486 111.201 147.282 112.125 147.214C115.667 147.077 130.607 146.26 133.148 146.056C132.378 145.647 132.224 144.967 132.455 144.149Z" fill="#184477"/>
<path d="M147.775 104.793H156.631C157.709 104.793 159.558 104.997 159.019 106.903C158.403 108.878 156.323 109.082 155.322 109.082H126.983C125.982 109.082 123.98 108.946 124.596 106.972C125.212 104.929 127.368 104.793 128.292 104.793H136.301L138.611 97.1664H128.446C127.445 97.1664 125.52 96.9622 126.059 94.9875C126.675 92.9448 128.831 92.8086 129.755 92.8086H139.921L141.076 88.9955C141.461 87.7698 142.693 83.6843 148.314 83.6843C154.167 83.6843 153.012 87.6336 152.627 88.9955L151.472 92.8086H162.407C163.485 92.8086 165.333 93.149 164.794 94.9875C164.178 96.9622 162.099 97.1664 161.098 97.1664H150.163L147.775 104.793Z" fill="#184477"/>
<path d="M117.437 141.085C117.591 139.519 117.514 134.685 117.668 134.14C117.976 133.119 119.285 131.961 120.825 131.961C121.518 131.961 121.98 132.029 124.136 134.344C127.217 137.749 128.141 139.996 127.525 141.971C126.755 144.422 123.674 146.397 120.594 146.397C116.898 146.397 117.206 144.558 117.437 141.085Z" fill="#184477"/>
<path d="M147.779 113.168H131.376C127.449 113.168 123.137 114.53 121.75 119.16L119.825 125.492C118.516 129.85 121.288 131.484 125.832 131.484H142.235C146.162 131.484 150.474 130.191 151.861 125.492L153.786 119.16C155.095 114.938 152.323 113.168 147.779 113.168ZM141.695 125.016C141.233 126.582 140.694 127.127 138.769 127.127H131.992C130.067 127.127 129.836 126.65 130.298 125.016L131.915 119.637C132.378 118.07 132.917 117.594 134.842 117.594H141.618C143.544 117.594 143.775 118.07 143.313 119.637L141.695 125.016Z" fill="#184477"/>
<path d="M138.31 154.976C138.618 153.955 139.619 153.41 140.081 153.138C151.556 147.146 160.951 138.43 168.189 128.625C168.959 127.535 170.577 125.424 173.888 125.424C176.352 125.424 180.434 126.991 179.433 130.327C178.508 133.323 171.655 140.405 163.646 145.92C152.249 153.819 141.083 157.087 140.466 157.155C139.003 157.291 137.848 156.406 138.31 154.976Z" fill="#184477"/>
<path d="M159.483 106.767C159.714 105.95 160.253 105.542 161.177 104.793C171.034 97.2345 174.731 92.1276 178.196 87.157C179.89 84.7057 181.739 83.9567 183.972 83.9567C186.975 83.9567 190.826 85.5228 189.901 88.5188C187.976 94.8513 163.796 109.014 161.331 109.014C159.868 108.946 159.098 107.993 159.483 106.767Z" fill="#E68244"/>
<path d="M153.629 126.514C153.937 125.561 154.63 125.084 155.169 124.675C165.642 117.253 171.725 110.24 174.113 107.516C175.268 106.086 176.885 104.18 179.965 104.18C183.2 104.18 186.126 106.495 185.279 109.355C183.2 116.3 158.095 128.557 155.785 128.557C153.629 128.625 153.32 127.399 153.629 126.514Z" fill="#184477"/>
<path d="M182.741 205.432C186.36 207.406 189.517 205.908 196.987 193.516C206.69 177.446 215.161 161.445 223.093 167.845C221.245 165.122 218.704 163.487 216.162 163.487C211.542 163.487 207.383 166.347 203.841 171.931L186.206 199.099C185.051 200.733 184.127 201.074 182.741 201.074C181.355 201.074 180.122 199.644 179.814 197.465C179.891 197.465 179.814 203.798 182.741 205.432Z" fill="#E68244"/>
<path d="M178.043 197.806C180.199 203.525 180.738 211.969 188.747 208.087C193.829 205.636 206.921 183.234 211.618 176.084C214.622 171.454 219.55 165.054 225.095 170.705C224.633 169.003 223.94 167.505 223.092 166.211C215.161 159.811 206.69 175.812 196.987 191.882C189.517 204.274 186.36 205.772 182.74 203.798C179.814 202.163 179.891 195.831 179.891 195.831V186.366C179.814 186.23 174.269 188 178.043 197.806Z" fill="#F1C16E"/>
<path d="M178.273 196.103C178.581 202.3 180.968 210.743 189.054 206.726C194.214 204.138 207.382 180.987 212.079 173.565C215.16 168.731 220.088 162.126 225.633 167.982C226.403 171.182 226.403 174.927 224.94 178.876C220.781 190.452 219.164 196.784 219.549 199.985C219.626 202.64 220.165 209.041 224.555 209.041C230.561 209.041 243.653 181.464 249.12 175.744C249.659 177.582 241.882 194.469 239.417 199.167C236.799 204.138 231.717 213.671 224.324 213.671C214.621 213.671 212.233 205.228 219.857 185.481C219.857 185.481 225.479 172.408 220.704 170.501C219.01 169.82 217.393 172.408 216.854 173.225C216.546 173.701 216.161 174.246 215.93 174.655L195.292 207.407C195.292 207.407 191.133 213.739 185.435 213.739C185.358 213.739 185.281 213.739 185.204 213.739H185.127C184.973 213.739 184.742 213.739 184.511 213.671C176.579 213.194 175.809 205.091 175.809 201.891C175.963 201.891 177.426 178.536 178.273 196.103Z" fill="#184477"/>
<path d="M178.273 196.103C178.581 202.3 180.968 210.743 189.054 206.726C194.214 204.138 207.382 180.987 212.079 173.565C215.16 168.731 220.088 162.126 225.633 167.982C226.403 171.182 226.403 174.927 224.94 178.876C220.781 190.452 219.164 196.784 219.549 199.985C219.626 202.64 220.165 209.041 224.555 209.041C230.561 209.041 243.653 181.464 249.12 175.744C249.659 177.582 241.882 194.469 239.417 199.167C236.799 204.138 231.717 213.671 224.324 213.671C214.621 213.671 212.233 205.228 219.857 185.481C219.857 185.481 225.479 172.408 220.704 170.501C219.01 169.82 217.393 172.408 216.854 173.225C216.546 173.701 216.161 174.246 215.93 174.655L195.292 207.407C195.292 207.407 191.133 213.739 185.435 213.739C185.358 213.739 185.281 213.739 185.204 213.739H185.127C184.973 213.739 184.742 213.739 184.511 213.671C176.579 213.194 175.809 205.091 175.809 201.891C175.963 201.891 177.426 178.536 178.273 196.103Z" stroke="#184477" stroke-miterlimit="10"/>
<path d="M184.974 156.542C175.733 161.241 170.343 173.157 170.112 182.485C169.727 196.171 178.66 203.117 179.045 203.389V203.321C178.352 202.368 168.957 189.022 174.27 175.063C179.276 161.99 189.98 155.929 196.371 160.968C199.375 163.351 200.068 167.845 198.297 173.701C198.605 173.633 198.913 173.497 199.221 173.293C203.995 169.548 203.841 146.805 184.974 156.542Z" fill="#184477"/>
<path d="M177.427 176.085C170.727 187.796 177.658 201.142 178.89 203.321C178.89 203.389 178.967 203.389 178.967 203.389C169.341 184.187 182.74 174.314 185.975 172.884C191.981 170.297 194.754 172.884 196.987 173.565C195.524 161.173 183.279 165.871 177.427 176.085Z" fill="#E68244"/>
<path d="M196.294 160.9C189.903 155.861 179.198 161.921 174.193 174.995C168.879 188.954 178.274 202.3 178.967 203.253C177.735 201.074 170.804 187.728 177.504 176.016C183.357 165.803 195.601 161.172 197.064 173.497C197.526 173.633 197.911 173.701 198.373 173.565C199.991 167.845 199.298 163.283 196.294 160.9Z" fill="#F1C16E"/>
<path d="M155.865 234.439C155.326 236.345 153.401 236.345 153.093 236.345C152.708 236.345 150.859 236.345 151.399 234.439L156.25 218.437C156.789 216.667 158.098 215.782 160.254 215.782H167.955C172.576 215.782 174.27 218.097 173.269 221.638C172.191 225.247 168.879 227.494 164.413 227.494H158.021L155.865 234.439ZM158.483 225.859H163.104C166.415 225.859 167.878 223.749 168.494 221.57C169.341 218.71 168.34 217.416 165.722 217.416H162.026C161.487 217.416 160.871 217.825 160.717 218.301L158.483 225.859Z" fill="#184477"/>
<path d="M189.131 224.906C189.67 224.906 189.978 225.315 189.824 225.723C189.67 226.132 189.208 226.54 188.669 226.54H179.89L177.811 233.418C177.657 233.894 177.965 234.303 178.504 234.303H187.283C187.822 234.303 188.13 234.711 187.976 235.12C187.822 235.528 187.36 235.937 186.821 235.937H175.809C173.653 235.937 172.883 235.052 173.422 233.281L177.965 218.369C178.504 216.599 179.813 215.714 181.97 215.714H192.674C193.29 215.714 193.521 216.122 193.367 216.531C193.213 217.007 192.674 217.348 192.135 217.348H183.664C183.125 217.348 182.509 217.756 182.355 218.233L180.352 224.838H189.131V224.906Z" fill="#184477"/>
<path d="M210.237 234.303C209.852 235.596 208.08 236.413 206.54 236.413C205.154 236.413 204.307 236.005 203.999 234.984L198.993 219.459C198.916 219.254 198.839 219.186 198.762 219.186C198.531 219.186 198.454 219.391 198.454 219.459L193.603 235.596C193.449 236.073 192.91 236.482 192.371 236.482C191.832 236.482 191.447 236.073 191.601 235.596L197.068 217.62C197.453 216.463 199.147 215.509 200.765 215.509C201.997 215.509 203.075 215.986 203.383 217.007L208.311 232.328C208.388 232.6 208.465 232.737 208.619 232.737C208.85 232.737 208.927 232.464 209.004 232.328L213.856 216.395C214.01 215.85 214.626 215.509 215.088 215.509C215.627 215.509 216.012 215.85 215.858 216.395L210.237 234.303Z" fill="#184477"/>
<path d="M234.028 225.382C236.261 225.382 236.954 226.268 236.415 228.038L235.645 230.626C234.952 232.873 231.102 236.345 224.633 236.345C215.854 236.345 215.7 230.489 217.086 225.927C219.165 219.118 224.402 215.373 230.948 215.373C237.262 215.373 238.803 219.05 238.263 220.684C237.955 221.774 236.723 222.25 235.722 222.25C233.797 222.25 233.874 221.161 233.874 220.276C234.028 217.212 230.948 217.075 230.178 217.075C225.172 217.075 223.093 221.774 221.861 225.859C219.936 232.124 221.168 234.643 225.018 234.643C227.636 234.643 230.409 233.145 231.102 230.762L231.949 227.834C232.103 227.289 231.718 226.949 231.256 226.949H228.483C227.867 226.949 227.636 226.54 227.79 226.131C227.944 225.655 228.406 225.314 229.023 225.314H234.028V225.382Z" fill="#184477"/>
<path d="M256.437 224.906L258.747 217.28C259.286 215.373 261.212 215.373 261.52 215.373C262.983 215.373 263.599 216.054 263.214 217.28L257.977 234.439C257.438 236.345 255.513 236.345 255.205 236.345C254.82 236.345 252.972 236.345 253.511 234.439L255.898 226.54H245.887L243.5 234.439C242.961 236.345 241.036 236.345 240.728 236.345C240.342 236.345 238.494 236.345 239.033 234.439L244.27 217.28C244.809 215.373 246.734 215.373 247.042 215.373C248.505 215.373 249.044 216.054 248.736 217.28L246.426 224.906H256.437Z" fill="#184477"/>
<path d="M268.989 229.264C267.603 233.962 270.144 234.643 272.839 234.643C277.152 234.643 280.155 232.396 281.079 229.468L285.083 216.258C285.237 215.782 285.776 215.373 286.316 215.373C286.855 215.373 287.24 215.714 287.086 216.258L283.158 229.128C281.849 233.417 277.614 236.277 271.915 236.277C268.989 236.277 262.674 235.528 264.984 227.902L268.219 217.212C268.758 215.305 270.683 215.305 270.991 215.305C272.454 215.305 272.993 215.986 272.685 217.212L268.989 229.264Z" fill="#184477"/>
<path d="M240.498 210.266C240.113 210.743 239.651 210.879 239.343 210.879C238.881 210.879 238.496 210.538 238.65 209.994C238.65 209.926 238.727 209.789 238.804 209.721L250.971 191.881C251.818 190.656 253.281 190.043 254.513 190.043C255.515 190.043 256.824 190.315 256.978 191.881L258.749 208.36C258.749 208.632 258.749 208.768 258.672 208.972C258.364 209.926 257.209 210.879 255.592 210.879C254.205 210.879 254.205 210.198 254.128 209.517L253.666 205.227H243.886L240.498 210.266ZM244.964 203.525H253.435L252.511 194.197C252.434 193.788 252.434 193.516 252.126 193.516C251.818 193.516 251.587 193.856 251.356 194.197L244.964 203.525Z" fill="#184477"/>
<path d="M240.498 210.266C240.113 210.743 239.651 210.879 239.343 210.879C238.881 210.879 238.496 210.538 238.65 209.994C238.65 209.926 238.727 209.789 238.804 209.721L250.971 191.881C251.818 190.656 253.281 190.043 254.513 190.043C255.515 190.043 256.824 190.315 256.978 191.881L258.749 208.36C258.749 208.632 258.749 208.768 258.672 208.972C258.364 209.926 257.209 210.879 255.592 210.879C254.205 210.879 254.205 210.198 254.128 209.517L253.666 205.227H243.886L240.498 210.266ZM244.964 203.525H253.435L252.511 194.197C252.434 193.788 252.434 193.516 252.126 193.516C251.818 193.516 251.587 193.856 251.356 194.197L244.964 203.525Z" stroke="#184477" stroke-miterlimit="10"/>
<path d="M273.225 209.04C272.608 209.926 271.222 210.879 269.682 210.879C268.142 210.879 267.295 210.13 267.141 209.109L265.678 192.562C265.678 192.154 265.678 192.086 265.678 191.881C265.986 190.724 267.603 190.043 268.681 190.043C270.144 190.043 270.144 190.792 270.221 191.405L271.53 206.657C271.53 206.93 271.607 207.338 271.915 207.338C272.146 207.338 272.377 207.202 272.762 206.657L283.467 190.656C283.698 190.247 284.237 190.043 284.545 190.043C285.084 190.043 285.392 190.452 285.238 190.928C285.238 190.996 285.161 191.132 285.084 191.201L273.225 209.04Z" fill="#184477"/>
<path d="M273.225 209.04C272.608 209.926 271.222 210.879 269.682 210.879C268.142 210.879 267.295 210.13 267.141 209.109L265.678 192.562C265.678 192.154 265.678 192.086 265.678 191.881C265.986 190.724 267.603 190.043 268.681 190.043C270.144 190.043 270.144 190.792 270.221 191.405L271.53 206.657C271.53 206.93 271.607 207.338 271.915 207.338C272.146 207.338 272.377 207.202 272.762 206.657L283.467 190.656C283.698 190.247 284.237 190.043 284.545 190.043C285.084 190.043 285.392 190.452 285.238 190.928C285.238 190.996 285.161 191.132 285.084 191.201L273.225 209.04Z" stroke="#184477" stroke-miterlimit="10"/>
<path d="M299.021 199.508C299.56 199.508 299.868 199.916 299.714 200.325C299.56 200.733 299.098 201.142 298.559 201.142H289.857L287.778 207.951C287.624 208.428 287.932 208.836 288.471 208.836H297.173C297.712 208.836 298.02 209.245 297.866 209.653C297.712 210.062 297.25 210.47 296.711 210.47H285.776C283.619 210.47 282.849 209.585 283.388 207.883L287.855 193.107C288.394 191.337 289.703 190.451 291.782 190.451H302.409C303.026 190.451 303.257 190.86 303.103 191.269C302.949 191.745 302.486 192.086 301.87 192.086H293.477C292.937 192.086 292.321 192.494 292.244 192.971L290.242 199.576H299.021V199.508Z" fill="#184477"/>
<path d="M299.021 199.508C299.56 199.508 299.868 199.916 299.714 200.325C299.56 200.733 299.098 201.142 298.559 201.142H289.857L287.778 207.951C287.624 208.428 287.932 208.836 288.471 208.836H297.173C297.712 208.836 298.02 209.245 297.866 209.653C297.712 210.062 297.25 210.47 296.711 210.47H285.776C283.619 210.47 282.849 209.585 283.388 207.883L287.855 193.107C288.394 191.337 289.703 190.451 291.782 190.451H302.409C303.026 190.451 303.257 190.86 303.103 191.269C302.949 191.745 302.486 192.086 301.87 192.086H293.477C292.937 192.086 292.321 192.494 292.244 192.971L290.242 199.576H299.021V199.508Z" stroke="#184477" stroke-miterlimit="10"/>
<path d="M80.0127 202.436C80.7058 200.802 80.4747 200.325 78.3955 200.325H76.0083C74.9302 200.325 73.0049 199.985 73.852 198.078C74.6991 196.035 76.8554 195.831 77.8565 195.831H86.4044C91.0249 195.831 93.7201 197.601 91.8719 201.959L83.9401 221.297C81.3988 230.149 90.4858 230.83 99.6498 230.83H142.466C143.39 230.83 145.47 230.966 144.7 233.009C143.852 235.12 141.619 235.256 140.695 235.256H93.4891C82.785 235.256 77.7795 234.03 75.0842 227.902C71.5418 230.694 64.8421 236.141 61.7618 236.141C59.2975 236.141 58.2194 234.235 59.7595 230.421C60.2986 229.06 61.0687 227.63 63.764 226.472C64.9961 225.995 70.3867 223.953 71.4648 223.476L80.0127 202.436Z" fill="#184477"/>
<path d="M91.332 186.366C88.2517 186.366 88.3287 184.8 88.6368 181.464C89.0218 176.153 89.2528 172.34 88.2517 167.301C87.7897 165.122 87.7897 164.849 87.9437 164.577C88.4827 163.283 90.1769 162.398 91.409 162.398C92.9492 162.398 96.0295 166.688 97.3387 168.458C99.6489 171.795 102.575 177.038 101.42 179.898C99.7259 183.779 94.7974 186.366 91.332 186.366Z" fill="#184477"/>
<path d="M119.827 177.65L115.515 188.068H121.444C129.222 188.068 127.374 192.494 126.527 194.537C123.292 202.368 117.517 215.169 114.282 219.867C109.662 226.472 105.735 226.88 101.114 226.88H95.4925C94.4914 226.88 92.4892 226.608 93.3362 224.633C94.0293 222.863 95.8775 222.386 97.3407 222.386H99.8049C102.423 222.386 103.732 221.229 105.658 217.96C109.123 211.696 114.359 200.189 116.901 193.924C117.44 192.63 116.054 192.63 115.515 192.63H113.589C111.356 197.601 106.813 207.202 96.7246 217.075C93.5673 220.139 88.0997 224.906 85.9435 224.906C84.4803 224.906 83.7872 223.953 84.2493 222.727C84.4803 222.182 88.3307 217.892 89.1008 217.007C95.4155 209.313 98.4958 203.457 104.04 189.975L109.123 177.718H105.504C104.502 177.718 102.5 177.446 103.347 175.471C104.117 173.565 106.274 173.293 107.352 173.293H114.205L116.978 166.62C117.517 165.326 119.057 161.513 124.756 161.513C130.377 161.513 128.76 165.462 128.298 166.62L125.526 173.293H131.609C132.61 173.293 134.613 173.429 133.843 175.471C132.995 177.514 130.916 177.718 129.838 177.718H119.827V177.65Z" fill="#E68244"/>
<path d="M167.183 171.046C168.338 171.046 170.186 171.386 169.339 173.293C168.492 175.335 166.413 175.54 165.335 175.54H144.697C139.229 179.898 130.835 185.685 128.602 185.685C127.216 185.685 126.6 184.664 127.062 183.506C127.524 182.485 131.99 178.331 132.683 177.514C136.611 173.293 138.074 171.318 142.695 164.917C144.004 163.079 145.621 160.9 149.856 160.9C153.245 160.9 156.094 162.33 154.862 165.326C154.169 166.96 152.244 168.935 150.01 170.978H167.183V171.046Z" fill="#E68244"/>
<path d="M125.446 205.84C124.368 205.84 122.442 205.568 123.289 203.593C124.137 201.55 126.293 201.414 127.294 201.414H134.071L135.149 198.827C135.842 197.125 137.536 192.971 143.466 193.107C144.544 191.881 146.854 189.294 147.316 188.273C147.547 187.728 146.931 187.66 146.777 187.66H135.688C134.61 187.66 132.684 187.387 133.455 185.481C134.302 183.438 136.458 183.234 137.459 183.234H160.176C163.103 183.234 162.718 185.277 162.41 185.958C161.408 188.477 148.317 196.444 147.316 197.056C147.162 197.601 147.162 197.669 146.7 198.827L145.622 201.414H154.709C155.787 201.414 157.712 201.687 156.942 203.593C156.095 205.636 153.939 205.84 152.938 205.84H143.851L137.69 220.752C135.765 225.519 131.144 226.88 127.14 226.88H117.36C116.282 226.88 114.357 226.54 115.204 224.633C116.051 222.591 118.207 222.386 119.208 222.386H123.135C125.138 222.386 125.677 221.91 126.37 220.276L132.299 205.84H125.446Z" fill="#F1C16E"/>
</svg>
